<svg width="128" height="128" viewBox="0 0 128 128" fill="none" xmlns="http://www.w3.org/2000/svg">
<path d="M64 128C99.3462 128 128 99.3462 128 64C128 57.7503 127.104 51.7098 125.434 46H118.669C115.005 46 111.541 47.6747 109.264 50.547L82.0663 84.8685C74.3868 94.5593 58.8334 90.2647 57.2144 78.0065L54.4652 57.1913L28.1533 88.8851C23.6172 94.3491 17.2078 97.8494 10.2545 98.762C21.6589 116.358 41.4699 128 64 128Z" fill="black"/>
<path d="M2.86748 83C1.00383 76.9971 0 70.6158 0 64C0 28.6538 28.6538 0 64 0C86.8551 0 106.912 11.9802 118.234 30.0034C109.844 30.1336 101.945 34.0216 96.7245 40.6097L72.4585 71.2311L69.1293 46.0244C67.7587 35.6467 54.6861 31.8765 47.9997 39.9306L15.8427 78.6651C13.5629 81.4112 10.179 83 6.60983 83H2.86748Z" fill="black"/>
</svg>
